<mxfile host="app.diagrams.net" modified="2022-05-16T07:59:16.660Z" agent="5.0 (Windows NT 10.0; Win64; x64) AppleWebKit/537.36 (KHTML, like Gecko) Chrome/101.0.4951.67 Safari/537.36" etag="i1IVEcaRTjkKxOOpJZOK" version="18.0.5" type="github">
  <diagram id="pN3tOv0Hnyo84Ak2nDvD" name="Page-1">
    <mxGraphModel dx="1038" dy="1398" grid="1" gridSize="10" guides="1" tooltips="1" connect="1" arrows="1" fold="1" page="1" pageScale="1" pageWidth="583" pageHeight="827" math="0" shadow="0">
      <root>
        <mxCell id="0" />
        <mxCell id="1" parent="0" />
        <mxCell id="IQrEFB0qYogeFQhgFLlO-49" value="include" style="edgeStyle=none;rounded=0;orthogonalLoop=1;jettySize=auto;html=1;entryX=1;entryY=0;entryDx=0;entryDy=0;fontSize=9;endArrow=none;endFill=0;exitX=1;exitY=0.5;exitDx=0;exitDy=0;dashed=1;" parent="1" source="IQrEFB0qYogeFQhgFLlO-1" target="IQrEFB0qYogeFQhgFLlO-11" edge="1">
          <mxGeometry relative="1" as="geometry" />
        </mxCell>
        <mxCell id="IQrEFB0qYogeFQhgFLlO-1" value="Mengelola Putusan Sidang" style="ellipse;whiteSpace=wrap;html=1;" parent="1" vertex="1">
          <mxGeometry x="360" y="-40" width="140" height="40" as="geometry" />
        </mxCell>
        <mxCell id="IQrEFB0qYogeFQhgFLlO-50" value="include" style="edgeStyle=none;rounded=0;orthogonalLoop=1;jettySize=auto;html=1;fontSize=9;endArrow=none;endFill=0;exitX=1;exitY=0.5;exitDx=0;exitDy=0;dashed=1;entryX=0.68;entryY=0.06;entryDx=0;entryDy=0;entryPerimeter=0;" parent="1" source="IQrEFB0qYogeFQhgFLlO-2" edge="1" target="IQrEFB0qYogeFQhgFLlO-11">
          <mxGeometry relative="1" as="geometry">
            <mxPoint x="750" y="280" as="targetPoint" />
          </mxGeometry>
        </mxCell>
        <mxCell id="IQrEFB0qYogeFQhgFLlO-2" value="Mengelola Data Jaksa" style="ellipse;whiteSpace=wrap;html=1;" parent="1" vertex="1">
          <mxGeometry x="360" y="10" width="140" height="40" as="geometry" />
        </mxCell>
        <mxCell id="IQrEFB0qYogeFQhgFLlO-51" value="include" style="edgeStyle=none;rounded=0;orthogonalLoop=1;jettySize=auto;html=1;entryX=0.377;entryY=0.06;entryDx=0;entryDy=0;fontSize=9;endArrow=none;endFill=0;exitX=1;exitY=0.5;exitDx=0;exitDy=0;entryPerimeter=0;dashed=1;" parent="1" source="IQrEFB0qYogeFQhgFLlO-3" target="IQrEFB0qYogeFQhgFLlO-11" edge="1">
          <mxGeometry relative="1" as="geometry" />
        </mxCell>
        <mxCell id="IQrEFB0qYogeFQhgFLlO-3" value="Mengelola Data Penggugat" style="ellipse;whiteSpace=wrap;html=1;" parent="1" vertex="1">
          <mxGeometry x="360" y="110" width="140" height="40" as="geometry" />
        </mxCell>
        <mxCell id="IQrEFB0qYogeFQhgFLlO-54" value="include" style="edgeStyle=none;rounded=0;orthogonalLoop=1;jettySize=auto;html=1;entryX=0;entryY=0;entryDx=0;entryDy=0;fontSize=9;endArrow=none;endFill=0;dashed=1;exitX=1;exitY=0.5;exitDx=0;exitDy=0;" parent="1" source="IQrEFB0qYogeFQhgFLlO-4" target="IQrEFB0qYogeFQhgFLlO-11" edge="1">
          <mxGeometry relative="1" as="geometry" />
        </mxCell>
        <mxCell id="IQrEFB0qYogeFQhgFLlO-4" value="Mengelola Data Permohonan/gugatan" style="ellipse;whiteSpace=wrap;html=1;" parent="1" vertex="1">
          <mxGeometry x="360" y="210" width="140" height="40" as="geometry" />
        </mxCell>
        <mxCell id="IQrEFB0qYogeFQhgFLlO-57" value="include" style="edgeStyle=none;rounded=0;orthogonalLoop=1;jettySize=auto;html=1;entryX=0;entryY=1;entryDx=0;entryDy=0;fontSize=9;endArrow=none;endFill=0;dashed=1;exitX=1;exitY=0.5;exitDx=0;exitDy=0;" parent="1" source="IQrEFB0qYogeFQhgFLlO-7" target="IQrEFB0qYogeFQhgFLlO-11" edge="1">
          <mxGeometry relative="1" as="geometry" />
        </mxCell>
        <mxCell id="IQrEFB0qYogeFQhgFLlO-7" value="Mengelola Transaksi Data Kasasi" style="ellipse;whiteSpace=wrap;html=1;" parent="1" vertex="1">
          <mxGeometry x="360" y="310" width="140" height="40" as="geometry" />
        </mxCell>
        <mxCell id="IQrEFB0qYogeFQhgFLlO-58" value="include" style="edgeStyle=none;rounded=0;orthogonalLoop=1;jettySize=auto;html=1;entryX=0;entryY=0.5;entryDx=0;entryDy=0;fontSize=9;endArrow=none;endFill=0;dashed=1;exitX=1;exitY=0.5;exitDx=0;exitDy=0;" parent="1" source="IQrEFB0qYogeFQhgFLlO-8" target="IQrEFB0qYogeFQhgFLlO-11" edge="1">
          <mxGeometry relative="1" as="geometry" />
        </mxCell>
        <mxCell id="IQrEFB0qYogeFQhgFLlO-8" value="Mengelola Transaksi Data Banding" style="ellipse;whiteSpace=wrap;html=1;" parent="1" vertex="1">
          <mxGeometry x="360" y="260" width="140" height="40" as="geometry" />
        </mxCell>
        <mxCell id="IQrEFB0qYogeFQhgFLlO-60" value="include" style="edgeStyle=none;rounded=0;orthogonalLoop=1;jettySize=auto;html=1;entryX=0.714;entryY=0.985;entryDx=0;entryDy=0;entryPerimeter=0;fontSize=9;endArrow=none;endFill=0;dashed=1;exitX=1;exitY=0.5;exitDx=0;exitDy=0;" parent="1" source="IQrEFB0qYogeFQhgFLlO-10" target="IQrEFB0qYogeFQhgFLlO-11" edge="1">
          <mxGeometry relative="1" as="geometry" />
        </mxCell>
        <mxCell id="IQrEFB0qYogeFQhgFLlO-10" value="Mengetahui Laporan" style="ellipse;whiteSpace=wrap;html=1;" parent="1" vertex="1">
          <mxGeometry x="360" y="510" width="140" height="40" as="geometry" />
        </mxCell>
        <mxCell id="IQrEFB0qYogeFQhgFLlO-11" value="Login" style="ellipse;whiteSpace=wrap;html=1;" parent="1" vertex="1">
          <mxGeometry x="690" y="280" width="140" height="40" as="geometry" />
        </mxCell>
        <mxCell id="IQrEFB0qYogeFQhgFLlO-38" style="edgeStyle=none;rounded=0;orthogonalLoop=1;jettySize=auto;html=1;entryX=0;entryY=0.5;entryDx=0;entryDy=0;fontSize=9;endArrow=none;endFill=0;" parent="1" source="IQrEFB0qYogeFQhgFLlO-16" target="IQrEFB0qYogeFQhgFLlO-1" edge="1">
          <mxGeometry relative="1" as="geometry" />
        </mxCell>
        <mxCell id="IQrEFB0qYogeFQhgFLlO-16" value="Hakim" style="ellipse;whiteSpace=wrap;html=1;" parent="1" vertex="1">
          <mxGeometry x="60" y="-40" width="140" height="40" as="geometry" />
        </mxCell>
        <mxCell id="IQrEFB0qYogeFQhgFLlO-39" style="edgeStyle=none;rounded=0;orthogonalLoop=1;jettySize=auto;html=1;fontSize=9;endArrow=none;endFill=0;" parent="1" source="IQrEFB0qYogeFQhgFLlO-17" target="IQrEFB0qYogeFQhgFLlO-2" edge="1">
          <mxGeometry relative="1" as="geometry" />
        </mxCell>
        <mxCell id="e7u4IJPn59wGGVXUjfqc-4" style="rounded=0;orthogonalLoop=1;jettySize=auto;html=1;entryX=0;entryY=0.5;entryDx=0;entryDy=0;endArrow=none;endFill=0;" edge="1" parent="1" source="IQrEFB0qYogeFQhgFLlO-17" target="e7u4IJPn59wGGVXUjfqc-3">
          <mxGeometry relative="1" as="geometry" />
        </mxCell>
        <mxCell id="IQrEFB0qYogeFQhgFLlO-17" value="Jaksa" style="ellipse;whiteSpace=wrap;html=1;" parent="1" vertex="1">
          <mxGeometry x="60" y="10" width="140" height="40" as="geometry" />
        </mxCell>
        <mxCell id="IQrEFB0qYogeFQhgFLlO-40" style="edgeStyle=none;rounded=0;orthogonalLoop=1;jettySize=auto;html=1;entryX=0;entryY=0.5;entryDx=0;entryDy=0;fontSize=9;endArrow=none;endFill=0;" parent="1" source="IQrEFB0qYogeFQhgFLlO-18" target="IQrEFB0qYogeFQhgFLlO-3" edge="1">
          <mxGeometry relative="1" as="geometry" />
        </mxCell>
        <mxCell id="e7u4IJPn59wGGVXUjfqc-6" style="edgeStyle=none;rounded=0;orthogonalLoop=1;jettySize=auto;html=1;entryX=0;entryY=0.5;entryDx=0;entryDy=0;fontSize=11;endArrow=none;endFill=0;" edge="1" parent="1" source="IQrEFB0qYogeFQhgFLlO-18" target="e7u4IJPn59wGGVXUjfqc-5">
          <mxGeometry relative="1" as="geometry" />
        </mxCell>
        <mxCell id="IQrEFB0qYogeFQhgFLlO-18" value="Penggugat" style="ellipse;whiteSpace=wrap;html=1;" parent="1" vertex="1">
          <mxGeometry x="60" y="110" width="140" height="40" as="geometry" />
        </mxCell>
        <mxCell id="IQrEFB0qYogeFQhgFLlO-41" style="edgeStyle=none;rounded=0;orthogonalLoop=1;jettySize=auto;html=1;entryX=0;entryY=0.5;entryDx=0;entryDy=0;fontSize=9;endArrow=none;endFill=0;" parent="1" source="IQrEFB0qYogeFQhgFLlO-19" target="IQrEFB0qYogeFQhgFLlO-4" edge="1">
          <mxGeometry relative="1" as="geometry" />
        </mxCell>
        <mxCell id="IQrEFB0qYogeFQhgFLlO-45" style="edgeStyle=none;rounded=0;orthogonalLoop=1;jettySize=auto;html=1;entryX=0;entryY=0.5;entryDx=0;entryDy=0;fontSize=9;endArrow=none;endFill=0;" parent="1" source="IQrEFB0qYogeFQhgFLlO-19" target="IQrEFB0qYogeFQhgFLlO-7" edge="1">
          <mxGeometry relative="1" as="geometry" />
        </mxCell>
        <mxCell id="IQrEFB0qYogeFQhgFLlO-46" style="edgeStyle=none;rounded=0;orthogonalLoop=1;jettySize=auto;html=1;entryX=0;entryY=0.5;entryDx=0;entryDy=0;fontSize=9;endArrow=none;endFill=0;" parent="1" source="IQrEFB0qYogeFQhgFLlO-19" target="IQrEFB0qYogeFQhgFLlO-8" edge="1">
          <mxGeometry relative="1" as="geometry" />
        </mxCell>
        <mxCell id="e7u4IJPn59wGGVXUjfqc-12" style="edgeStyle=none;rounded=0;orthogonalLoop=1;jettySize=auto;html=1;entryX=0;entryY=0.5;entryDx=0;entryDy=0;fontSize=11;endArrow=none;endFill=0;" edge="1" parent="1" source="IQrEFB0qYogeFQhgFLlO-19" target="e7u4IJPn59wGGVXUjfqc-7">
          <mxGeometry relative="1" as="geometry" />
        </mxCell>
        <mxCell id="e7u4IJPn59wGGVXUjfqc-14" style="edgeStyle=none;rounded=0;orthogonalLoop=1;jettySize=auto;html=1;entryX=0;entryY=0.5;entryDx=0;entryDy=0;fontSize=11;endArrow=none;endFill=0;" edge="1" parent="1" source="IQrEFB0qYogeFQhgFLlO-19" target="e7u4IJPn59wGGVXUjfqc-8">
          <mxGeometry relative="1" as="geometry" />
        </mxCell>
        <mxCell id="e7u4IJPn59wGGVXUjfqc-15" style="edgeStyle=none;rounded=0;orthogonalLoop=1;jettySize=auto;html=1;entryX=0;entryY=0.5;entryDx=0;entryDy=0;fontSize=11;endArrow=none;endFill=0;" edge="1" parent="1" source="IQrEFB0qYogeFQhgFLlO-19" target="e7u4IJPn59wGGVXUjfqc-9">
          <mxGeometry relative="1" as="geometry" />
        </mxCell>
        <mxCell id="IQrEFB0qYogeFQhgFLlO-19" value="Admin/Panitera" style="ellipse;whiteSpace=wrap;html=1;" parent="1" vertex="1">
          <mxGeometry x="60" y="330" width="140" height="40" as="geometry" />
        </mxCell>
        <mxCell id="IQrEFB0qYogeFQhgFLlO-48" style="edgeStyle=none;rounded=0;orthogonalLoop=1;jettySize=auto;html=1;fontSize=9;endArrow=none;endFill=0;" parent="1" source="IQrEFB0qYogeFQhgFLlO-20" target="IQrEFB0qYogeFQhgFLlO-10" edge="1">
          <mxGeometry relative="1" as="geometry" />
        </mxCell>
        <mxCell id="e7u4IJPn59wGGVXUjfqc-11" style="edgeStyle=none;rounded=0;orthogonalLoop=1;jettySize=auto;html=1;entryX=0;entryY=0.5;entryDx=0;entryDy=0;fontSize=11;endArrow=none;endFill=0;" edge="1" parent="1" source="IQrEFB0qYogeFQhgFLlO-20" target="e7u4IJPn59wGGVXUjfqc-10">
          <mxGeometry relative="1" as="geometry" />
        </mxCell>
        <mxCell id="IQrEFB0qYogeFQhgFLlO-20" value="Pimpinan Kejaksaan" style="ellipse;whiteSpace=wrap;html=1;" parent="1" vertex="1">
          <mxGeometry x="60" y="510" width="140" height="40" as="geometry" />
        </mxCell>
        <mxCell id="e7u4IJPn59wGGVXUjfqc-21" value="include" style="edgeStyle=none;rounded=0;orthogonalLoop=1;jettySize=auto;html=1;entryX=0.5;entryY=0;entryDx=0;entryDy=0;fontSize=9;endArrow=none;endFill=0;exitX=1;exitY=0.5;exitDx=0;exitDy=0;dashed=1;" edge="1" parent="1" source="e7u4IJPn59wGGVXUjfqc-3" target="IQrEFB0qYogeFQhgFLlO-11">
          <mxGeometry relative="1" as="geometry" />
        </mxCell>
        <mxCell id="e7u4IJPn59wGGVXUjfqc-3" value="Mengajukan&lt;br&gt;&amp;nbsp;Permohonan" style="ellipse;whiteSpace=wrap;html=1;" vertex="1" parent="1">
          <mxGeometry x="360" y="60" width="140" height="40" as="geometry" />
        </mxCell>
        <mxCell id="e7u4IJPn59wGGVXUjfqc-16" value="include" style="edgeStyle=none;rounded=0;orthogonalLoop=1;jettySize=auto;html=1;entryX=0.234;entryY=0.06;entryDx=0;entryDy=0;entryPerimeter=0;fontSize=9;endArrow=none;endFill=0;dashed=1;exitX=1;exitY=0.5;exitDx=0;exitDy=0;" edge="1" parent="1" source="e7u4IJPn59wGGVXUjfqc-5" target="IQrEFB0qYogeFQhgFLlO-11">
          <mxGeometry relative="1" as="geometry" />
        </mxCell>
        <mxCell id="e7u4IJPn59wGGVXUjfqc-5" value="Mengajukan Gugatan" style="ellipse;whiteSpace=wrap;html=1;" vertex="1" parent="1">
          <mxGeometry x="360" y="160" width="140" height="40" as="geometry" />
        </mxCell>
        <mxCell id="e7u4IJPn59wGGVXUjfqc-22" value="include" style="edgeStyle=none;rounded=0;orthogonalLoop=1;jettySize=auto;html=1;entryX=0.371;entryY=0.96;entryDx=0;entryDy=0;entryPerimeter=0;fontSize=9;endArrow=none;endFill=0;exitX=1;exitY=0.5;exitDx=0;exitDy=0;dashed=1;" edge="1" parent="1" source="e7u4IJPn59wGGVXUjfqc-7" target="IQrEFB0qYogeFQhgFLlO-11">
          <mxGeometry relative="1" as="geometry" />
        </mxCell>
        <mxCell id="e7u4IJPn59wGGVXUjfqc-7" value="Mengelola Data Biaya" style="ellipse;whiteSpace=wrap;html=1;" vertex="1" parent="1">
          <mxGeometry x="360" y="360" width="140" height="40" as="geometry" />
        </mxCell>
        <mxCell id="e7u4IJPn59wGGVXUjfqc-18" value="include" style="edgeStyle=none;rounded=0;orthogonalLoop=1;jettySize=auto;html=1;entryX=0.5;entryY=1;entryDx=0;entryDy=0;fontSize=9;endArrow=none;endFill=0;exitX=1;exitY=0.5;exitDx=0;exitDy=0;dashed=1;" edge="1" parent="1" source="e7u4IJPn59wGGVXUjfqc-8" target="IQrEFB0qYogeFQhgFLlO-11">
          <mxGeometry relative="1" as="geometry" />
        </mxCell>
        <mxCell id="e7u4IJPn59wGGVXUjfqc-8" value="Membuat berita acara" style="ellipse;whiteSpace=wrap;html=1;" vertex="1" parent="1">
          <mxGeometry x="360" y="410" width="140" height="40" as="geometry" />
        </mxCell>
        <mxCell id="e7u4IJPn59wGGVXUjfqc-19" value="include" style="edgeStyle=none;rounded=0;orthogonalLoop=1;jettySize=auto;html=1;entryX=0.606;entryY=1;entryDx=0;entryDy=0;entryPerimeter=0;fontSize=9;endArrow=none;endFill=0;exitX=1;exitY=0.5;exitDx=0;exitDy=0;dashed=1;" edge="1" parent="1" source="e7u4IJPn59wGGVXUjfqc-9" target="IQrEFB0qYogeFQhgFLlO-11">
          <mxGeometry relative="1" as="geometry" />
        </mxCell>
        <mxCell id="e7u4IJPn59wGGVXUjfqc-9" value="Mengelola Data Jadwal Sidang" style="ellipse;whiteSpace=wrap;html=1;" vertex="1" parent="1">
          <mxGeometry x="360" y="460" width="140" height="40" as="geometry" />
        </mxCell>
        <mxCell id="e7u4IJPn59wGGVXUjfqc-20" value="&lt;font style=&quot;font-size: 9px;&quot;&gt;include&lt;/font&gt;" style="edgeStyle=none;rounded=0;orthogonalLoop=1;jettySize=auto;html=1;entryX=1;entryY=1;entryDx=0;entryDy=0;fontSize=11;endArrow=none;endFill=0;exitX=1;exitY=0.5;exitDx=0;exitDy=0;dashed=1;" edge="1" parent="1" source="e7u4IJPn59wGGVXUjfqc-10" target="IQrEFB0qYogeFQhgFLlO-11">
          <mxGeometry relative="1" as="geometry" />
        </mxCell>
        <mxCell id="e7u4IJPn59wGGVXUjfqc-10" value="Menentukan Hakim dalam suatu perkara" style="ellipse;whiteSpace=wrap;html=1;" vertex="1" parent="1">
          <mxGeometry x="360" y="560" width="140" height="40" as="geometry" />
        </mxCell>
      </root>
    </mxGraphModel>
  </diagram>
</mxfile>
